<?xml version="1.0" encoding="UTF-8" standalone="no"?>
<!-- Created with Inkscape (http://www.inkscape.org/) -->

<svg
   version="1.1"
   id="svg1"
   width="3333.3333"
   height="2666.6667"
   viewBox="0 0 3333.3333 2666.6667"
   sodipodi:docname="VETOR.ai"
   xmlns:inkscape="http://www.inkscape.org/namespaces/inkscape"
   xmlns:sodipodi="http://sodipodi.sourceforge.net/DTD/sodipodi-0.dtd"
   xmlns="http://www.w3.org/2000/svg"
   xmlns:svg="http://www.w3.org/2000/svg">
  <defs
     id="defs1">
    <clipPath
       clipPathUnits="userSpaceOnUse"
       id="clipPath2">
      <path
         d="M 0,2000 H 2500 V 0 H 0 Z"
         transform="translate(-1233.7429,-1337.7727)"
         id="path2" />
    </clipPath>
    <clipPath
       clipPathUnits="userSpaceOnUse"
       id="clipPath4">
      <path
         d="M 0,2000 H 2500 V 0 H 0 Z"
         transform="translate(-517.38641,-545.44799)"
         id="path4" />
    </clipPath>
    <clipPath
       clipPathUnits="userSpaceOnUse"
       id="clipPath6">
      <path
         d="M 0,2000 H 2500 V 0 H 0 Z"
         transform="translate(-884.053,-468.24914)"
         id="path6" />
    </clipPath>
    <clipPath
       clipPathUnits="userSpaceOnUse"
       id="clipPath8">
      <path
         d="M 0,2000 H 2500 V 0 H 0 Z"
         transform="translate(-1694.1489,-539.17379)"
         id="path8" />
    </clipPath>
    <clipPath
       clipPathUnits="userSpaceOnUse"
       id="clipPath10">
      <path
         d="M 0,2000 H 2500 V 0 H 0 Z"
         transform="translate(-1075.347,-505.26074)"
         id="path10" />
    </clipPath>
    <clipPath
       clipPathUnits="userSpaceOnUse"
       id="clipPath12">
      <path
         d="M 0,2000 H 2500 V 0 H 0 Z"
         transform="translate(-2177.5636,-440.34464)"
         id="path12" />
    </clipPath>
    <clipPath
       clipPathUnits="userSpaceOnUse"
       id="clipPath14">
      <path
         d="M 0,2000 H 2500 V 0 H 0 Z"
         transform="translate(-1273.7358,-442.11134)"
         id="path14" />
    </clipPath>
    <clipPath
       clipPathUnits="userSpaceOnUse"
       id="clipPath16">
      <path
         d="M 0,2000 H 2500 V 0 H 0 Z"
         transform="translate(-1490.8941,-449.43771)"
         id="path16" />
    </clipPath>
    <clipPath
       clipPathUnits="userSpaceOnUse"
       id="clipPath18">
      <path
         d="M 0,2000 H 2500 V 0 H 0 Z"
         transform="translate(-1571.817,-686.74072)"
         id="path18" />
    </clipPath>
  </defs>
  <sodipodi:namedview
     id="namedview1"
     pagecolor="#ffffff"
     bordercolor="#000000"
     borderopacity="0.25"
     inkscape:showpageshadow="2"
     inkscape:pageopacity="0.0"
     inkscape:pagecheckerboard="0"
     inkscape:deskcolor="#d1d1d1">
    <inkscape:page
       x="0"
       y="0"
       inkscape:label="1"
       id="page1"
       width="3333.3333"
       height="2666.6667"
       margin="310.42133 427.07999 310.42667 400.18933"
       bleed="0" />
  </sodipodi:namedview>
  <g
     id="layer-MC0"
     inkscape:groupmode="layer"
     inkscape:label="Camada 1">
    <path
       id="path1"
       d="m 0,0 42.016,23.011 c 0.15,0.083 0.297,0.17 0.441,0.263 l 37.977,24.463 c 17.386,11.2 41.481,37.959 36.932,45.251 -4.583,7.347 -33.012,0.214 -49.597,-6.158 C 39.645,76.026 14.312,62.854 -11.65,47.875 -33.022,35.545 -51.669,21.537 -70.178,5.242 c -4.606,-4.055 -7.727,-8.484 -7.084,-13.739 0.657,-5.362 3.923,-11.877 10.482,-11.854 15.424,0.053 29.915,5.18 44.052,10.979 l 22.001,9.025 C -0.478,-0.245 -0.236,-0.129 0,0 m -49.186,-532.99 c -0.051,0.148 -0.098,0.297 -0.14,0.447 l -31.025,112.112 c -7.448,26.913 -15.656,52.237 -26.977,77.571 -10.952,24.508 -28.006,49.386 -54.881,43.412 -14.62,-3.249 -28.501,-8.406 -41.022,-16.414 l -55.215,-35.311 c -12.74,-8.147 -32.783,-18.76 -40.356,-13.042 -8.404,6.345 1.913,38.181 10.129,54.008 l 27.115,52.237 c 0.072,0.14 0.14,0.282 0.204,0.426 l 16.962,38.679 c 4.7,10.719 8.144,26.02 3.457,37.107 -4.517,10.684 -19.558,16.293 -30.634,17.641 -27.919,3.4 -54.665,2.895 -82.675,-0.439 l -100.967,-12.02 -83.468,-9.289 c -6.401,-0.712 -12.584,0.129 -18.667,1.741 -4.309,1.142 -6.461,5.929 -4.629,9.993 1.332,2.953 3.17,5.518 5.754,7.452 l 38.576,28.864 c 0.214,0.16 0.437,0.308 0.668,0.444 l 98.27,57.728 111.843,65.63 c 18.547,10.883 34.644,24.062 49.395,39.361 12.405,12.866 18.283,29.922 17.465,47.446 -0.373,7.984 -0.611,17.138 -3.098,24.58 l -12.661,37.881 c -0.047,0.143 -0.099,0.285 -0.156,0.424 l -40.478,99.834 c -7.864,19.394 -7.221,45.471 6.335,42.958 9.68,-1.795 18.634,-3.674 27.248,-7.744 l 96.789,-45.74 c 22.773,-10.762 45.92,-17.611 70.968,-19.879 14.509,-1.314 28.155,1.331 40.343,9.186 48.112,31.01 84.369,92.86 118.852,140.348 l 38.096,52.464 c 6.317,8.699 22.775,23.695 29.112,22.202 6.459,-1.522 7.229,-22.825 5.815,-36.796 l -9.384,-92.722 c -2.364,-23.358 -1.393,-54.878 11.967,-71.682 6.785,-8.535 19.115,-11.734 29.78,-10.052 17.693,2.79 34.288,8.142 50.378,15.57 l 26.322,12.15 136.486,68.343 55.324,25.144 c 10.39,4.722 28.701,8.889 33.148,5.161 5.619,-4.712 -8.434,-27.608 -18.743,-38.667 l -62.938,-67.516 -51.28,-53.284 C 311.31,156.995 286.785,128.284 265.715,95.786 248.098,68.613 241.782,42.393 264.402,18.407 275.621,6.51 288.994,-3.957 304.255,-11.332 l 112.463,-54.347 c 19.62,-9.481 50.015,-22.035 57.842,-39.083 1.246,-2.713 0.598,-5.929 -1.524,-8.03 -14.286,-14.142 -46.967,-17.118 -69.696,-19.563 l -144.057,-15.499 c -0.14,-0.015 -0.279,-0.034 -0.418,-0.057 l -81.735,-13.681 c -21.074,-3.527 -39.952,-11.38 -58.843,-21.453 -33.982,-18.12 -56.615,-58.5 -66.271,-96.04 -10.026,-38.98 -17.122,-77.216 -21.63,-117.422 L 18.916,-498.804 5.954,-580.958 c -1.369,-8.681 -7.081,-17.3 -12.767,-23.297 -7.268,-7.666 -19.271,4.892 -22.896,15.307 z"
       style="fill:#000000;fill-opacity:1;fill-rule:nonzero;stroke:none"
       transform="matrix(1.3333333,0,0,-1.3333333,1644.9905,882.96973)"
       clip-path="url(#clipPath2)" />
    <path
       id="path3"
       d="M 0,0 C 11.612,8.368 21.813,16.425 29.287,27.317 53.54,62.663 -30.855,82.387 -70.945,76.415 L -71.453,56.651 -96.997,-47.047 C -61.407,-34.252 -30.63,-19.629 0,0 m -155.825,-308.33 c -15.477,-10.101 -33.841,-1.297 -39.315,14.788 -4.168,12.25 -6.038,25.232 -4.908,38.856 8.969,108.219 32.356,218.352 69.137,322.795 L -175.157,54.45 c -11.031,-5.117 -22.996,-2.528 -31.694,4.954 -8.327,7.161 -13.013,18.893 -8.848,30.624 7.889,22.214 40.24,37.509 64.384,44.894 60.034,18.36 135.794,19.151 191.553,-10.355 14.627,-7.74 27.008,-17.59 38.009,-29.762 C 103.875,66.45 108.04,26.039 87.291,-6.514 72.631,-29.515 52.123,-46.502 28.499,-60.608 -15.578,-86.927 -61.597,-105.85 -111.96,-120.781 l -11.481,-59.498 -18.695,-111.734 c -2.665,-5.176 -8.476,-12.915 -13.689,-16.317"
       style="fill:#000000;fill-opacity:1;fill-rule:nonzero;stroke:none"
       transform="matrix(1.3333333,0,0,-1.3333333,689.84853,1939.4027)"
       clip-path="url(#clipPath4)" />
    <path
       id="path5"
       d="m 0,0 -40.588,62.952 c -5.95,9.228 -15.034,17.54 -26.737,19.004 -20.879,2.612 -55.605,-23.464 -70.232,-39.675 l -53.604,-59.41 c -5.746,-6.369 -14.022,-10.961 -21.86,-11.509 -19.628,-1.372 -35.002,20.124 -32.753,42.538 11.379,113.393 44.848,246.046 119.821,333.412 15.647,18.234 37.54,31.166 54.441,16.198 7.056,-6.249 12.323,-20.026 6.487,-30.334 l -37.699,-66.583 c -28.796,-50.858 -50.934,-104.159 -62.859,-163.684 19.651,15.313 36.77,29.027 58.474,37.552 33.255,13.062 68.052,7.503 95.179,-16.067 C 2.055,110.969 14.122,95.867 23.472,78.275 l 49.431,-93.004 c 4.454,-8.38 0.594,-20.236 -7.312,-23.796 C 42.892,-48.742 14.137,-21.927 0,0"
       style="fill:#000000;fill-opacity:1;fill-rule:nonzero;stroke:none"
       transform="matrix(1.3333333,0,0,-1.3333333,1178.7373,2042.3345)"
       clip-path="url(#clipPath6)" />
    <path
       id="path7"
       d="m 0,0 25.16,22.813 c -3.871,5.538 -9.305,5.824 -15.249,4.17 -27.764,-7.727 -53.353,-21.027 -71.872,-43.062 -6.776,-8.062 -11.827,-16.394 -9.981,-27.394 C -43.488,-38.33 -20.763,-18.826 0,0 m 156.546,-93.874 c -17.465,-10.774 -52.802,9.096 -70.911,26.698 l -30.301,29.454 c -38.583,-36.46 -109.782,-89.777 -157.725,-60.83 -23.635,14.271 -35.351,39.907 -31.187,67.494 9.786,64.84 79.795,108.576 142.02,119.685 29.075,5.19 63.512,-1.144 70.273,-28.31 1.926,-7.735 0.148,-16.991 -1.199,-25.325 12.697,-7.517 20.906,-18.579 29.793,-30.028 l 51.658,-66.546 c 7.795,-10.041 9.419,-24.987 -2.421,-32.292"
       style="fill:#000000;fill-opacity:1;fill-rule:nonzero;stroke:none"
       transform="matrix(1.3333333,0,0,-1.3333333,2258.8651,1947.7683)"
       clip-path="url(#clipPath8)" />
    <path
       id="path9"
       d="m 0,0 c 20.733,9.103 37.734,23.019 51.354,41.211 4.013,5.359 6.61,15.631 1.837,21 -6.909,7.771 -19.98,8.828 -29.186,4.694 L -20.542,46.901 C -35.302,40.273 -55.89,18.764 -47.823,2.368 -41.085,-11.326 -18.266,-8.02 0,0 m -34.741,-67.505 c -42.93,-1.096 -76.858,30.25 -78.881,72.017 -0.666,13.737 1.592,26.93 7.648,39.337 17.253,35.346 49.541,61.281 88.28,69.203 l 17.864,1.473 c 42.645,24.106 97.865,8.663 114.315,-36.066 8.296,-22.557 5.092,-46.69 -7.188,-67.526 C 79.203,-36.734 21.614,-66.066 -34.741,-67.505"
       style="fill:#000000;fill-opacity:1;fill-rule:nonzero;stroke:none"
       transform="matrix(1.3333333,0,0,-1.3333333,1433.796,1992.9857)"
       clip-path="url(#clipPath10)" />
    <path
       id="path11"
       d="m 0,0 c -9.714,-20.719 -48.069,-6.174 -69.15,34.774 l -24.79,48.153 c -7.075,13.742 -22.541,18.633 -36.837,13.381 -15.083,-5.542 -28.998,-13.003 -42.04,-22.461 L -223.3,37.234 c -21.378,-15.504 -49.768,-21.376 -69.154,-3.919 -36.725,33.07 7.226,95.235 42.962,125.733 14.483,12.361 33.65,21.401 47.258,11.798 6.092,-4.298 12.508,-12.53 11.021,-21.254 l -3.113,-18.267 45.719,18.874 c 12.302,5.079 25.846,5.844 39.25,5.946 25.625,0.195 48.163,-12.044 61.968,-33.486 L -28.8,85.661 -1.313,24.567 C 2.142,16.888 3.682,7.853 0,0"
       style="fill:#000000;fill-opacity:1;fill-rule:nonzero;stroke:none"
       transform="matrix(1.3333333,0,0,-1.3333333,2903.418,2079.5405)"
       clip-path="url(#clipPath12)" />
    <path
       id="path13"
       d="m 0,0 c -9.525,-11.494 -25.068,-14.1 -36.608,-6.308 -10.783,7.282 -14.996,19.421 -14.342,32.396 1.866,36.997 9.998,71.945 21.401,106.949 3.399,9.735 7.068,19.026 12.333,27.403 10.107,16.082 27.622,22.146 45.59,16.159 35.043,28.942 90.552,54.569 132.591,40.76 10.911,-3.584 18.147,-12.669 17.777,-23.562 -0.327,-9.614 -8.091,-20.027 -18.972,-21.95 C 78.739,157.533 37.609,95.707 11.556,22.076 8.832,14.376 5.458,6.587 0,0"
       style="fill:#000000;fill-opacity:1;fill-rule:nonzero;stroke:none"
       transform="matrix(1.3333333,0,0,-1.3333333,1698.3143,2077.1849)"
       clip-path="url(#clipPath14)" />
    <path
       id="path15"
       d="m 0,0 c -11.81,-11.47 -29.204,-9.084 -38.113,3.788 -4.902,7.082 -7.364,16.143 -7.235,25.297 0.499,35.399 7.103,69.681 21.153,101.892 8.95,20.517 24.161,42.124 43.976,37.688 17.352,-3.885 23.978,-25.781 19.39,-43.702 L 12.947,22.521 C 10.821,14.216 6.379,6.195 0,0"
       style="fill:#000000;fill-opacity:1;fill-rule:nonzero;stroke:none"
       transform="matrix(1.3333333,0,0,-1.3333333,1987.8587,2067.4164)"
       clip-path="url(#clipPath16)" />
    <path
       id="path17"
       d="m 0,0 c -12.604,-15.67 -31.973,-22.441 -51.147,-19.371 -25.754,4.124 -43.47,28.369 -37.984,54.058 3.871,18.125 18.993,30.836 37.28,33.768 21.683,3.477 42.946,-6.957 54.308,-25.59 C 10.571,29.558 10.233,12.723 0,0"
       style="fill:#000000;fill-opacity:1;fill-rule:nonzero;stroke:none"
       transform="matrix(1.3333333,0,0,-1.3333333,2095.756,1751.0124)"
       clip-path="url(#clipPath18)" />
  </g>
</svg>
