<?xml version="1.0" encoding="UTF-8"?>
<svg
  xmlns="http://www.w3.org/2000/svg"
  viewBox="820 -485 1450 1450"
  width="512"
  height="512"
  fill="none"
>
  <defs>
    <clipPath id="phorian-symbol-clip" clipPathUnits="userSpaceOnUse">
      <path
        d="M 0,2000 H 2500 V 0 H 0 Z"
        transform="translate(-1233.7429,-1337.7727)"
      />
    </clipPath>
  </defs>
  <path
    fill="#F3E6D4"
    fill-rule="nonzero"
    clip-path="url(#phorian-symbol-clip)"
    transform="matrix(1.3333333,0,0,-1.3333333,1644.9905,882.96973)"
    d="m 0,0 42.016,23.011 c 0.15,0.083 0.297,0.17 0.441,0.263 l 37.977,24.463 c 17.386,11.2 41.481,37.959 36.932,45.251 -4.583,7.347 -33.012,0.214 -49.597,-6.158 C 39.645,76.026 14.312,62.854 -11.65,47.875 -33.022,35.545 -51.669,21.537 -70.178,5.242 c -4.606,-4.055 -7.727,-8.484 -7.084,-13.739 0.657,-5.362 3.923,-11.877 10.482,-11.854 15.424,0.053 29.915,5.18 44.052,10.979 l 22.001,9.025 C -0.478,-0.245 -0.236,-0.129 0,0 m -49.186,-532.99 c -0.051,0.148 -0.098,0.297 -0.14,0.447 l -31.025,112.112 c -7.448,26.913 -15.656,52.237 -26.977,77.571 -10.952,24.508 -28.006,49.386 -54.881,43.412 -14.62,-3.249 -28.501,-8.406 -41.022,-16.414 l -55.215,-35.311 c -12.74,-8.147 -32.783,-18.76 -40.356,-13.042 -8.404,6.345 1.913,38.181 10.129,54.008 l 27.115,52.237 c 0.072,0.14 0.14,0.282 0.204,0.426 l 16.962,38.679 c 4.7,10.719 8.144,26.02 3.457,37.107 -4.517,10.684 -19.558,16.293 -30.634,17.641 -27.919,3.4 -54.665,2.895 -82.675,-0.439 l -100.967,-12.02 -83.468,-9.289 c -6.401,-0.712 -12.584,0.129 -18.667,1.741 -4.309,1.142 -6.461,5.929 -4.629,9.993 1.332,2.953 3.17,5.518 5.754,7.452 l 38.576,28.864 c 0.214,0.16 0.437,0.308 0.668,0.444 l 98.27,57.728 111.843,65.63 c 18.547,10.883 34.644,24.062 49.395,39.361 12.405,12.866 18.283,29.922 17.465,47.446 -0.373,7.984 -0.611,17.138 -3.098,24.58 l -12.661,37.881 c -0.047,0.143 -0.099,0.285 -0.156,0.424 l -40.478,99.834 c -7.864,19.394 -7.221,45.471 6.335,42.958 9.68,-1.795 18.634,-3.674 27.248,-7.744 l 96.789,-45.74 c 22.773,-10.762 45.92,-17.611 70.968,-19.879 14.509,-1.314 28.155,1.331 40.343,9.186 48.112,31.01 84.369,92.86 118.852,140.348 l 38.096,52.464 c 6.317,8.699 22.775,23.695 29.112,22.202 6.459,-1.522 7.229,-22.825 5.815,-36.796 l -9.384,-92.722 c -2.364,-23.358 -1.393,-54.878 11.967,-71.682 6.785,-8.535 19.115,-11.734 29.78,-10.052 17.693,2.79 34.288,8.142 50.378,15.57 l 26.322,12.15 136.486,68.343 55.324,25.144 c 10.39,4.722 28.701,8.889 33.148,5.161 5.619,-4.712 -8.434,-27.608 -18.743,-38.667 l -62.938,-67.516 -51.28,-53.284 C 311.31,156.995 286.785,128.284 265.715,95.786 248.098,68.613 241.782,42.393 264.402,18.407 275.621,6.51 288.994,-3.957 304.255,-11.332 l 112.463,-54.347 c 19.62,-9.481 50.015,-22.035 57.842,-39.083 1.246,-2.713 0.598,-5.929 -1.524,-8.03 -14.286,-14.142 -46.967,-17.118 -69.696,-19.563 l -144.057,-15.499 c -0.14,-0.015 -0.279,-0.034 -0.418,-0.057 l -81.735,-13.681 c -21.074,-3.527 -39.952,-11.38 -58.843,-21.453 -33.982,-18.12 -56.615,-58.5 -66.271,-96.04 -10.026,-38.98 -17.122,-77.216 -21.63,-117.422 L 18.916,-498.804 5.954,-580.958 c -1.369,-8.681 -7.081,-17.3 -12.767,-23.297 -7.268,-7.666 -19.271,4.892 -22.896,15.307 z"
  />
</svg>
